<?xml version="1.0" encoding="UTF-8" standalone="no"?>
<!-- Created with Inkscape (http://www.inkscape.org/) -->

<svg
   xmlns:dc="http://purl.org/dc/elements/1.1/"
   xmlns:cc="http://creativecommons.org/ns#"
   xmlns:rdf="http://www.w3.org/1999/02/22-rdf-syntax-ns#"
   xmlns:svg="http://www.w3.org/2000/svg"
   xmlns="http://www.w3.org/2000/svg"
   xmlns:sodipodi="http://sodipodi.sourceforge.net/DTD/sodipodi-0.dtd"
   xmlns:inkscape="http://www.inkscape.org/namespaces/inkscape"
   width="96"
   height="96"
   id="svg2"
   version="1.1"
   inkscape:version="0.48.3.1 r9886"
   sodipodi:docname="black_queen_margin_border.svg">
  <defs
     id="defs4" />
  <sodipodi:namedview
     id="base"
     pagecolor="#ffffff"
     bordercolor="#666666"
     borderopacity="1.0"
     inkscape:pageopacity="0.0"
     inkscape:pageshadow="2"
     inkscape:zoom="4.98"
     inkscape:cx="50.96354"
     inkscape:cy="46.430591"
     inkscape:document-units="px"
     inkscape:current-layer="layer1"
     showgrid="false"
     inkscape:window-width="1280"
     inkscape:window-height="724"
     inkscape:window-x="0"
     inkscape:window-y="24"
     inkscape:window-maximized="1">
    <inkscape:grid
       type="xygrid"
       id="grid2989"
       empspacing="16"
       visible="true"
       enabled="true"
       snapvisiblegridlinesonly="true" />
  </sodipodi:namedview>
  <metadata
     id="metadata7">
    <rdf:RDF>
      <cc:Work
         rdf:about="">
        <dc:format>image/svg+xml</dc:format>
        <dc:type
           rdf:resource="http://purl.org/dc/dcmitype/StillImage" />
        <dc:title></dc:title>
      </cc:Work>
    </rdf:RDF>
  </metadata>
  <g
     inkscape:label="Layer 1"
     inkscape:groupmode="layer"
     id="layer1"
     transform="translate(0,-956.36218)">
    <path
       sodipodi:type="inkscape:offset"
       inkscape:radius="1.3013794"
       inkscape:original="M 48.09375 970.84375 C 46.502934 970.84382 45.144506 971.39344 43.96875 972.5 C 42.862088 973.60669 42.281216 974.99637 42.28125 976.65625 C 42.281216 976.79464 42.652073 977.89388 43.34375 979.96875 C 44.104522 981.97457 44.468714 984.22889 44.46875 986.71875 C 44.468714 990.17701 43.733665 995.15485 42.28125 1001.6562 C 38.477186 993.7024 36.593722 987.81075 36.59375 983.9375 C 36.593722 983.73006 36.698729 982.97043 36.90625 981.65625 C 37.182879 980.34219 37.312471 979.60714 37.3125 979.46875 C 37.312471 977.87803 36.738264 976.51294 35.5625 975.40625 C 34.455846 974.23052 33.090754 973.65631 31.5 973.65625 C 29.840036 973.65631 28.425773 974.20594 27.25 975.3125 C 26.143354 976.41919 25.593733 977.80887 25.59375 979.46875 C 25.593733 980.71376 25.828333 981.68341 26.3125 982.375 C 26.796632 983.0667 27.346253 983.59173 27.96875 983.9375 C 28.591208 984.28337 29.14083 985.1726 29.625 986.625 C 30.109128 988.0775 30.374978 990.06597 30.375 992.625 C 30.374978 995.73743 30.18955 998.7268 29.84375 1001.5625 C 25.41722 997.06686 23.218735 993.26869 23.21875 990.15625 C 23.218735 990.01797 23.267907 989.36334 23.40625 988.1875 C 23.613728 986.94259 23.718735 986.28797 23.71875 986.21875 C 23.718735 984.62803 23.144528 983.26293 21.96875 982.15625 C 20.86211 980.98051 19.497017 980.40631 17.90625 980.40625 C 16.2463 980.40631 14.832036 980.95593 13.65625 982.0625 C 12.549618 983.16918 11.999997 984.55886 12 986.21875 C 11.999997 989.1237 13.599689 991.21718 16.78125 992.53125 C 16.988734 995.50536 17.408763 998.4143 18.03125 1001.25 C 18.653718 1004.0858 19.20334 1006.3647 19.6875 1008.0938 C 20.240803 1009.8229 20.499988 1010.8975 20.5 1011.3125 C 20.499988 1012.0042 21.784659 1013.863 24.34375 1016.9062 C 26.971974 1019.8803 28.28123 1021.9492 28.28125 1023.125 C 28.28123 1023.54 27.812031 1024.8805 26.84375 1027.0938 C 25.944597 1029.307 25.499983 1031.3513 25.5 1033.2188 C 25.499983 1034.602 27.618047 1035.7259 31.90625 1036.625 C 36.263571 1037.455 41.636855 1037.875 48 1037.875 C 53.602261 1037.875 58.76553 1037.5354 63.46875 1036.8438 C 68.241025 1036.0829 70.624938 1034.8787 70.625 1033.2188 C 70.624938 1031.4205 70.124488 1029.4008 69.15625 1027.1875 C 68.187891 1024.9051 67.718691 1023.54 67.71875 1023.125 C 67.718691 1021.9492 69.003362 1019.8557 71.5625 1016.8125 C 74.190677 1013.7693 75.499933 1011.935 75.5 1011.3125 C 75.499933 1010.5517 76.024969 1008.3532 77.0625 1004.6875 C 78.099895 1000.9527 78.803694 996.88864 79.21875 992.53125 C 82.400233 991.07885 83.999925 988.98537 84 986.21875 C 83.999925 984.62803 83.425718 983.26293 82.25 982.15625 C 81.143299 980.98051 79.753621 980.40631 78.09375 980.40625 C 76.502904 980.40631 75.113226 980.98051 73.9375 982.15625 C 72.830808 983.26293 72.281186 984.62803 72.28125 986.21875 C 72.627007 987.25626 72.781186 988.56552 72.78125 990.15625 C 72.781186 993.26869 70.582701 997.06686 66.15625 1001.5625 C 65.810372 998.7268 65.624943 995.79327 65.625 992.75 C 65.624943 990.74428 65.785786 989.06417 66.0625 987.75 C 66.408264 986.43593 66.797042 985.52212 67.28125 984.96875 C 67.765341 984.34633 68.265791 983.82129 68.75 983.40625 C 69.234089 982.99132 69.598282 982.49087 69.875 981.9375 C 70.22076 981.31508 70.406188 980.50627 70.40625 979.46875 C 70.406188 977.87803 69.831981 976.51294 68.65625 975.40625 C 67.549563 974.23052 66.184471 973.65631 64.59375 973.65625 C 62.933753 973.65631 61.51949 974.20594 60.34375 975.3125 C 59.237071 976.41919 58.68745 977.80887 58.6875 979.46875 C 58.68745 979.81463 58.792457 980.57426 59 981.75 C 59.207442 982.92585 59.312449 983.6609 59.3125 983.9375 C 59.312449 987.87991 57.453572 993.77157 53.71875 1001.6562 C 52.266257 995.15485 51.531207 990.17701 51.53125 986.71875 C 51.531207 984.22889 51.870814 982.03041 52.5625 980.09375 C 53.323262 978.15721 53.718705 977.00213 53.71875 976.65625 C 53.718705 975.06553 53.137834 973.73169 52.03125 972.625 C 50.993744 971.44927 49.684487 970.84382 48.09375 970.84375 z M 48.09375 973.875 C 48.785353 973.87506 49.390809 974.13425 49.875 974.6875 C 50.359108 975.17171 50.593708 975.77717 50.59375 976.46875 C 50.593708 978.19792 49.753651 979.06256 48.09375 979.0625 C 47.402069 979.06256 46.803276 978.79671 46.25 978.3125 C 45.765813 977.82841 45.499963 977.22962 45.5 976.46875 C 45.499963 975.70801 45.765813 975.07796 46.25 974.59375 C 46.803276 974.10966 47.402069 973.87506 48.09375 973.875 z M 31.5 977.0625 C 33.159918 977.06256 33.999975 977.9272 34 979.65625 C 33.999975 981.38541 33.159918 982.25006 31.5 982.25 C 29.701708 982.25006 28.81248 981.38541 28.8125 979.65625 C 28.81248 977.9272 29.701708 977.06256 31.5 977.0625 z M 64.59375 977.0625 C 66.322799 977.06256 67.187441 977.9272 67.1875 979.65625 C 67.187441 981.38541 66.322799 982.25006 64.59375 982.25 C 62.933753 982.25006 62.124947 981.38541 62.125 979.65625 C 62.124947 978.96467 62.359546 978.39046 62.84375 977.90625 C 63.327845 977.353 63.902052 977.06256 64.59375 977.0625 z M 17.90625 983.625 C 19.566181 983.62505 20.406238 984.4897 20.40625 986.21875 C 20.406238 987.94791 19.566181 988.81255 17.90625 988.8125 C 17.145435 988.81255 16.515392 988.5467 16.03125 988.0625 C 15.547093 987.5784 15.312493 986.97961 15.3125 986.21875 C 15.312493 985.458 15.547093 984.82795 16.03125 984.34375 C 16.515392 983.85965 17.145435 983.62505 17.90625 983.625 z M 78.09375 983.625 C 78.854487 983.62505 79.484529 983.85965 79.96875 984.34375 C 80.452828 984.82795 80.687428 985.458 80.6875 986.21875 C 80.687428 987.94791 79.822786 988.81255 78.09375 988.8125 C 76.43374 988.81255 75.593683 987.94791 75.59375 986.21875 C 75.593683 984.4897 76.43374 983.62505 78.09375 983.625 z M 48.09375 1011 C 52.312727 1011 56.481761 1011.2905 60.5625 1011.8438 C 64.7123 1012.3279 66.781192 1013.1367 66.78125 1014.3125 C 66.781192 1015.35 65.941135 1015.875 64.28125 1015.875 C 64.073702 1015.875 61.875217 1015.77 57.65625 1015.5625 C 53.506349 1015.2859 50.362801 1015.1563 48.21875 1015.1562 C 46.143785 1015.1563 43.284007 1015.2859 39.6875 1015.5625 C 36.090931 1015.77 33.552839 1015.875 32.03125 1015.875 C 30.232958 1015.875 29.312479 1015.4058 29.3125 1014.4375 C 29.312479 1013.2617 31.437207 1012.3971 35.65625 1011.8438 C 39.944403 1011.2905 44.082187 1011 48.09375 1011 z M 48.09375 1023.6562 C 59.505803 1023.6563 65.218693 1024.7555 65.21875 1026.9688 C 65.218693 1028.0754 64.434472 1028.625 62.84375 1028.625 C 62.636203 1028.625 60.591897 1028.4954 56.71875 1028.2188 C 52.845507 1027.9421 50.01698 1027.8125 48.21875 1027.8125 C 46.489606 1027.8125 43.605242 1027.9421 39.59375 1028.2188 C 35.65136 1028.4954 33.557882 1028.625 33.28125 1028.625 C 31.690449 1028.625 30.874978 1028.0754 30.875 1026.9688 C 30.874978 1026.0005 32.660098 1025.2162 36.1875 1024.5938 C 39.784011 1023.9713 43.736366 1023.6563 48.09375 1023.6562 z "
       style="font-size:103.74639892999999802px;font-style:normal;font-variant:normal;font-weight:normal;font-stretch:normal;line-height:125%;letter-spacing:0px;word-spacing:0px;fill:#ffffff;fill-opacity:1;stroke:none;font-family:FreeSerif;-inkscape-font-specification:FreeSerif"
       id="path3759"
       d="m 48.09375,969.53125 c -1.890531,8e-5 -3.647806,0.72923 -5.03125,2.03125 a 1.3015096,1.3015096 0 0 0 0,0.0313 c -1.33083,1.33086 -2.09379,3.09899 -2.09375,5.0625 -7.6e-5,0.30813 0.04266,0.32446 0.0625,0.40625 0.01984,0.0818 0.03632,0.16099 0.0625,0.25 0.05236,0.17801 0.127446,0.40647 0.21875,0.6875 0.182608,0.56205 0.435674,1.33835 0.78125,2.375 a 1.3015096,1.3015096 0 0 0 0.03125,0.0625 c 0.694952,1.83228 1.031216,3.91828 1.03125,6.28125 -2.6e-5,2.45251 -0.536465,6.12036 -1.34375,10.375 -2.416832,-5.68536 -3.90627,-10.37892 -3.90625,-13.15625 1.6e-5,0.11608 0.01243,-0.19781 0.0625,-0.5625 0.04707,-0.34281 0.12484,-0.84009 0.21875,-1.4375 0.006,-0.0381 -0.0062,-0.0546 0,-0.0937 0.128121,-0.61176 0.246331,-1.13911 0.3125,-1.5 0.03507,-0.19128 0.0428,-0.33851 0.0625,-0.46875 0.0197,-0.13024 0.06245,-0.16879 0.0625,-0.40625 -3.4e-5,-1.889 -0.735607,-3.64434 -2.125,-4.96875 -0.0061,-0.006 -0.02512,0.006 -0.03125,0 -1.325804,-1.39811 -3.073617,-2.15618 -4.96875,-2.15625 -1.947203,7e-5 -3.757822,0.71514 -5.15625,2.03125 a 1.3015096,1.3015096 0 0 0 0,0.0313 c -1.339472,1.33953 -2.06252,3.11534 -2.0625,5.0625 -1.9e-5,1.4085 0.270101,2.65829 0.96875,3.65625 0.57206,0.81733 1.266652,1.47808 2.09375,1.9375 0.07895,0.0439 0.590126,0.64548 1.03125,1.96875 0.416657,1.25007 0.687479,3.12485 0.6875,5.59375 -1.3e-5,1.90618 -0.177177,3.66605 -0.3125,5.46875 -2.606138,-3.17233 -4.218759,-5.97364 -4.21875,-7.9375 9e-6,0.0853 0.003,-0.15545 0.03125,-0.46875 0.02696,-0.29885 0.0621,-0.74154 0.125,-1.28125 0.003,-0.0261 -0.0031,-0.0358 0,-0.0625 0.09751,-0.58559 0.199026,-1.05471 0.25,-1.375 0.02661,-0.1672 0.04777,-0.30433 0.0625,-0.40625 0.01473,-0.10192 0.03118,0.002 0.03125,-0.34375 -1.8e-5,-1.889 -0.735583,-3.64434 -2.125,-4.96875 -0.0061,-0.006 -0.02512,0.006 -0.03125,0 -1.325797,-1.39813 -3.073612,-2.15618 -4.96875,-2.15625 -1.947187,7e-5 -3.757809,0.71513 -5.15625,2.03125 a 1.3015096,1.3015096 0 0 0 0,0.0313 c -1.339459,1.33952 -2.062504,3.11533 -2.0625,5.0625 -3e-6,3.12609 1.84894,5.62062 4.875,7.125 0.226917,2.78271 0.602579,5.52293 1.1875,8.18745 0.625559,2.8499 1.192239,5.1376 1.6875,6.9063 a 1.3015096,1.3015096 0 0 0 0,0.063 c 0.270778,0.8462 0.470168,1.5049 0.59375,2 0.123582,0.4951 0.156252,0.8759 0.15625,0.8125 -10e-6,0.5758 0.172342,0.9094 0.375,1.3125 0.202658,0.4031 0.470903,0.8473 0.8125,1.3438 0.683193,0.9928 1.674241,2.2418 2.96875,3.7812 a 1.3015096,1.3015096 0 0 0 0.03125,0.031 c 1.285963,1.4552 2.216206,2.6519 2.8125,3.5938 0.596294,0.9419 0.781248,1.6451 0.78125,1.75 1.4e-5,-0.2829 -0.05869,0.2553 -0.28125,0.875 -0.222563,0.6197 -0.55484,1.4735 -1.03125,2.5625 a 1.3015096,1.3015096 0 0 0 -0.03125,0.031 c -0.948028,2.3335 -1.437519,4.5509 -1.4375,6.625 -8e-6,0.6779 0.30082,1.3497 0.71875,1.8437 0.41793,0.494 0.932912,0.8529 1.5625,1.1875 1.259176,0.6692 2.947677,1.1932 5.15625,1.6562 a 1.3015096,1.3015096 0 0 0 0.03125,0 c 4.471233,0.8517 9.92334,1.2813 16.34375,1.2813 5.654853,0 10.878063,-0.3599 15.65625,-1.0625 a 1.3015096,1.3015096 0 0 0 0.03125,0 c 2.458279,-0.392 4.343392,-0.8817 5.75,-1.5938 1.406608,-0.712 2.499946,-1.8595 2.5,-3.3124 -7e-5,-2.0314 -0.582907,-4.2132 -1.59375,-6.5313 -0.0049,-0.012 0.0049,-0.02 0,-0.031 -0.469831,-1.1087 -0.809932,-1.9949 -1.03125,-2.625 -0.223604,-0.6365 -0.28121,-1.1894 -0.28125,-0.9062 -6e-6,-0.1139 0.16457,-0.8217 0.75,-1.7812 0.58543,-0.9596 1.527252,-2.1964 2.78125,-3.6876 1.328758,-1.5385 2.303345,-2.7761 3,-3.75 0.348327,-0.4869 0.63687,-0.8934 0.84375,-1.2812 0.20688,-0.3878 0.406184,-0.7008 0.40625,-1.3125 -7e-6,-0.081 0.09032,-0.8663 0.34375,-1.9375 0.253432,-1.0712 0.640385,-2.5211 1.15625,-4.3438 1.004912,-3.6178 1.665355,-7.53381 2.09375,-11.68745 3.038855,-1.60643 4.906168,-4.08401 4.90625,-7.125 -8.9e-5,-1.88897 -0.735654,-3.64434 -2.125,-4.96875 -0.0061,-0.006 -0.02512,0.006 -0.03125,0 -1.332639,-1.40501 -3.111509,-2.15618 -5.0625,-2.15625 -1.903964,7e-5 -3.674021,0.76775 -5.0625,2.15625 -1.332721,1.33271 -2.062576,3.07823 -2.0625,4.96875 a 1.3015096,1.3015096 0 0 0 0.0625,0.40625 c 0.278621,0.83605 0.437439,2.02458 0.4375,3.53125 -4e-5,1.96388 -1.612641,4.76517 -4.21875,7.9375 -0.133023,-1.76552 -0.312535,-3.49762 -0.3125,-5.34375 -5.5e-5,-1.93613 0.154664,-3.52392 0.40625,-4.71875 0.31599,-1.16482 0.669155,-1.94779 0.90625,-2.21875 a 1.3015096,1.3015096 0 0 0 0.0625,-0.0313 c 0.434984,-0.55928 0.872389,-1.02454 1.28125,-1.375 0.620072,-0.53149 1.067229,-1.17629 1.40625,-1.84375 0.0064,-0.0126 0.02493,-0.0186 0.03125,-0.0313 l -0.03125,0 c 0.472519,-0.86307 0.718679,-1.88139 0.71875,-3.0625 -7.4e-5,-1.88898 -0.735646,-3.64434 -2.125,-4.96875 -0.0061,-0.006 -0.02512,0.006 -0.03125,0 -1.32583,-1.3981 -3.073643,-2.15618 -4.96875,-2.15625 -1.947231,7e-5 -3.757847,0.71513 -5.15625,2.03125 a 1.3015096,1.3015096 0 0 0 0,0.0313 c -1.339513,1.33953 -2.062559,3.11532 -2.0625,5.0625 -8.8e-5,0.60955 0.132589,1.30376 0.34375,2.5 0.204375,1.15847 0.28126,2.02109 0.28125,1.96875 -3.7e-5,2.82817 -1.463134,7.48844 -3.8125,13.09375 -0.799685,-4.22633 -1.34378,-7.87159 -1.34375,-10.3125 -4.1e-5,-2.35938 0.311735,-4.39255 0.9375,-6.15625 0.0032,-0.009 -0.0032,-0.0222 0,-0.0313 0.378002,-0.96305 0.671308,-1.74088 0.875,-2.34375 0.20608,-0.60994 0.374913,-0.86254 0.375,-1.53125 -5.3e-5,-1.88324 -0.778124,-3.56601 -2.0625,-4.875 L 53,971.75 c -0.01578,-0.0179 -0.04656,-0.0136 -0.0625,-0.0313 -1.246666,-1.38362 -2.947084,-2.18742 -4.84375,-2.1875 z m 0,5.65625 c 0.366526,3e-5 0.549735,0.0435 0.8125,0.34375 a 1.3015096,1.3015096 0 0 0 0.0625,0.0625 c 0.249231,0.24928 0.312476,0.47768 0.3125,0.875 -1.6e-5,0.65385 -0.13275,0.90985 -0.25,1.03125 -0.11725,0.1214 -0.33352,0.25002 -0.9375,0.25 -0.344646,3e-5 -0.611692,-0.0715 -0.96875,-0.375 -0.248637,-0.25647 -0.312521,-0.46693 -0.3125,-0.90625 -2.1e-5,-0.43976 0.07912,-0.69425 0.3125,-0.9375 0.33729,-0.28634 0.58624,-0.34372 0.96875,-0.34375 z M 31.5,978.375 c 0.604007,2e-5 0.820232,0.12858 0.9375,0.25 0.117268,0.12142 0.249991,0.37748 0.25,1.03125 -9e-6,0.65384 -0.132751,0.90985 -0.25,1.03125 -0.117249,0.1214 -0.333511,0.25002 -0.9375,0.25 -0.690564,2e-5 -0.990454,-0.15116 -1.125,-0.28125 -0.134546,-0.13009 -0.250007,-0.3585 -0.25,-1 -7e-6,-0.64143 0.115435,-0.86989 0.25,-1 0.134565,-0.13011 0.43442,-0.28123 1.125,-0.28125 z m 33.09375,0 c 0.647606,2e-5 0.905653,0.1244 1.03125,0.25 0.125597,0.1256 0.249978,0.38364 0.25,1.03125 -2.2e-5,0.64768 -0.124422,0.90567 -0.25,1.03125 -0.125578,0.12558 -0.383661,0.25002 -1.03125,0.25 -0.604039,2e-5 -0.796457,-0.1029 -0.90625,-0.21875 -0.109793,-0.11585 -0.25002,-0.40083 -0.25,-1.0625 -3e-5,-0.39722 0.04343,-0.57468 0.3125,-0.84375 a 1.3015096,1.3015096 0 0 0 0.0625,-0.0625 c 0.296898,-0.33931 0.453784,-0.37497 0.78125,-0.375 z m -46.6875,6.5625 c 0.604011,2e-5 0.820234,0.12858 0.9375,0.25 0.117266,0.12142 0.249995,0.37748 0.25,1.03125 -5e-6,0.65384 -0.132753,0.90985 -0.25,1.03125 -0.117247,0.1214 -0.333499,0.25002 -0.9375,0.25 -0.457609,3e-5 -0.715356,-0.0903 -0.96875,-0.34375 -0.253366,-0.25334 -0.312505,-0.44415 -0.3125,-0.9375 -5e-6,-0.4932 0.07883,-0.73506 0.3125,-0.96875 0.233603,-0.23358 0.475411,-0.31247 0.96875,-0.3125 z m 60.1875,0 c 0.493233,3e-5 0.735023,0.0788 0.96875,0.3125 0.233632,0.23369 0.312453,0.47548 0.3125,0.96875 -2.7e-5,0.64768 -0.12442,0.90567 -0.25,1.03125 -0.12558,0.12558 -0.383665,0.25002 -1.03125,0.25 -0.604051,2e-5 -0.820268,-0.12861 -0.9375,-0.25 -0.117232,-0.12139 -0.250025,-0.37742 -0.25,-1.03125 -2.5e-5,-0.65376 0.132748,-0.90984 0.25,-1.03125 0.117252,-0.12141 0.333438,-0.24998 0.9375,-0.25 z m -30,27.375 c 4.159239,0 8.257354,0.2669 12.28125,0.8125 a 1.3015096,1.3015096 0 0 0 0.03125,0 c 2.016773,0.2353 3.504175,0.5742 4.34375,0.9062 0.364567,0.1442 0.552033,0.2606 0.65625,0.3438 -0.114661,0.06 -0.467834,0.1875 -1.125,0.1875 0.115685,0 -0.648798,-0.01 -1.75,-0.063 -1.09407,-0.052 -2.692246,-0.1473 -4.78125,-0.25 -0.01364,-9e-4 -0.01764,9e-4 -0.03125,0 -4.146304,-0.2758 -7.310754,-0.4061 -9.5,-0.4062 -2.121399,10e-5 -4.994013,0.13 -8.59375,0.4062 -0.01306,10e-4 -0.01817,-10e-4 -0.03125,0 -3.563267,0.2052 -6.106785,0.3125 -7.5625,0.3125 -0.615769,0 -0.895224,-0.086 -1.125,-0.1563 0.135711,-0.09 0.221976,-0.1677 0.5,-0.2812 0.867901,-0.3544 2.355454,-0.7311 4.40625,-1 4.240113,-0.5471 8.332514,-0.8125 12.28125,-0.8125 z m 0,12.6563 c 5.664246,0 9.897865,0.2604 12.59375,0.7812 1.347942,0.2604 2.315989,0.6181 2.8125,0.9062 0.496511,0.2882 0.40625,0.3191 0.40625,0.3126 -1.3e-5,0.2458 0.02803,0.1461 -0.03125,0.1874 -0.05928,0.041 -0.385766,0.1563 -1.03125,0.1563 0.08355,0 -0.16123,0.016 -0.4375,0 -0.27627,-0.016 -0.647577,-0.06 -1.15625,-0.094 -1.017345,-0.067 -2.502749,-0.1744 -4.4375,-0.3126 -3.889352,-0.2778 -6.732992,-0.4062 -8.59375,-0.4062 -1.79417,0 -4.692365,0.1285 -8.71875,0.4062 -1.969308,0.1382 -3.484908,0.2459 -4.53125,0.3126 -1.046342,0.067 -1.752413,0.094 -1.6875,0.094 -0.608705,0 -0.90354,-0.1331 -1,-0.1875 0.0973,-0.072 0.203018,-0.163 0.46875,-0.2812 0.708617,-0.3155 1.947671,-0.6673 3.65625,-0.9688 3.511331,-0.6078 7.392817,-0.9062 11.6875,-0.9062 z" />
    <text
       xml:space="preserve"
       style="font-size:103.74639892999999802px;font-style:normal;font-variant:normal;font-weight:normal;font-stretch:normal;line-height:125%;letter-spacing:0px;word-spacing:0px;fill:#333333;fill-opacity:1;stroke:none;font-family:FreeSerif;-inkscape-font-specification:FreeSerif"
       x="8.6801157"
       y="1037.7684"
       id="text2985"
       sodipodi:linespacing="125%"><tspan
         sodipodi:role="line"
         id="tspan2987"
         x="8.6801157"
         y="1037.7684">♛</tspan></text>
  </g>
</svg>
